fd_2_states
version=1
nRows=31
nColumns=17
inDegrees=yes

# SIMM Motion File Header:
name fd_2_states
datacolumns 17
datarows 31
otherdata 1
range 0.26863090 0.31916093
endheader
time	/jointset/r_shoulder/r_shoulder_elev/value	/jointset/r_shoulder/r_shoulder_elev/speed	/jointset/r_elbow/r_elbow_flex/value	/jointset/r_elbow/r_elbow_flex/speed	/forceset/TRIlong/activation	/forceset/TRIlong/fiber_length	/forceset/TRIlat/activation	/forceset/TRIlat/fiber_length	/forceset/TRImed/activation	/forceset/TRImed/fiber_length	/forceset/BIClong/activation	/forceset/BIClong/fiber_length	/forceset/BICshort/activation	/forceset/BICshort/fiber_length	/forceset/BRA/activation	/forceset/BRA/fiber_length
      0.26863090	     -5.25567443	    -55.37997798	     53.15115692	    152.98219760	      0.02000255	      0.15393369	      0.05615540	      0.09084127	      0.05620170	      0.08587470	      0.32076917	      0.12712183	      0.06846152	      0.12644751	      0.02367471	      0.08105231
      0.26988930	     -5.32546013	    -55.53199375	     53.34395497	    153.43714098	      0.02000251	      0.15396167	      0.05636991	      0.09091132	      0.05640065	      0.08594497	      0.32183314	      0.12701681	      0.06828149	      0.12634091	      0.02361333	      0.08100327
      0.27087598	     -5.38031107	    -55.64964340	     53.49552570	    153.79393882	      0.02000247	      0.15398363	      0.05695610	      0.09096556	      0.05696223	      0.08599938	      0.32361812	      0.12693411	      0.06821147	      0.12625691	      0.02356592	      0.08096458
      0.27186267	     -5.43527598	    -55.76250870	     53.64744410	    154.14026670	      0.02000244	      0.15400560	      0.05753125	      0.09101823	      0.05751402	      0.08605233	      0.32542426	      0.12685067	      0.06815611	      0.12617244	      0.02351914	      0.08092569
      0.27464757	     -5.59097912	    -56.04951721	     54.07799299	    155.04511112	      0.02000235	      0.15406772	      0.05871529	      0.09116795	      0.05865007	      0.08620306	      0.32963039	      0.12661235	      0.06800428	      0.12593163	      0.02339043	      0.08081478
      0.27743247	     -5.74743656	    -56.30887691	     54.51097619	    155.90311088	      0.02000227	      0.15412995	      0.05945085	      0.09132185	      0.05935582	      0.08635755	      0.33279132	      0.12637161	      0.06785873	      0.12568754	      0.02326647	      0.08070225
      0.27928631	     -5.85197914	    -56.47602422	     54.80052648	    156.47850452	      0.02000221	      0.15417142	      0.05977899	      0.09142639	      0.05967065	      0.08646230	      0.33445035	      0.12621070	      0.06776520	      0.12552337	      0.02318650	      0.08062645
      0.28016084	     -5.90140399	    -56.55468849	     54.93749360	    156.75501622	      0.02000219	      0.15419101	      0.05992764	      0.09147616	      0.05983645	      0.08651210	      0.33524724	      0.12613469	      0.06770859	      0.12544547	      0.02314946	      0.08059044
      0.28080920	     -5.93809031	    -56.61275466	     55.03919328	    156.96149311	      0.02000217	      0.15420553	      0.06019314	      0.09151275	      0.06025499	      0.08654835	      0.33655500	      0.12607811	      0.06757652	      0.12538761	      0.02312228	      0.08056365
      0.28145755	     -5.97481393	    -56.66964523	     55.14102639	    157.16628778	      0.02000215	      0.15422006	      0.06044539	      0.09154894	      0.06065632	      0.08658379	      0.33784565	      0.12602116	      0.06743758	      0.12532973	      0.02309534	      0.08053676
      0.28387471	     -6.11203639	    -56.86671575	     55.52181978	    157.90158377	      0.02000208	      0.15427430	      0.06117471	      0.09168396	      0.06181607	      0.08671562	      0.34197130	      0.12580644	      0.06693174	      0.12511353	      0.02299695	      0.08043577
      0.28629186	     -6.24971344	    -57.04820789	     55.90435987	    158.61934669	      0.02000202	      0.15432862	      0.06165872	      0.09182095	      0.06258552	      0.08685004	      0.34520329	      0.12558925	      0.06644453	      0.12489636	      0.02290171	      0.08033357
      0.28895476	     -6.40188710	    -57.24349721	     56.32782062	    159.43169979	      0.02000195	      0.15438858	      0.06200617	      0.09197418	      0.06313808	      0.08700131	      0.34796662	      0.12534849	      0.06592849	      0.12465557	      0.02280031	      0.08021958
      0.29011002	     -6.46806742	    -57.32904220	     56.51221600	    159.79798500	      0.02000192	      0.15441463	      0.06217629	      0.09204123	      0.06335577	      0.08706770	      0.34904120	      0.12524377	      0.06570846	      0.12455052	      0.02275744	      0.08016966
      0.29059673	     -6.49597913	    -57.36510790	     56.59003016	    159.95432871	      0.02000190	      0.15442561	      0.06257153	      0.09206888	      0.06367924	      0.08709530	      0.34992639	      0.12519953	      0.06560196	      0.12450616	      0.02273958	      0.08014855
      0.29108345	     -6.52390822	    -57.40033092	     56.66792014	    160.10917838	      0.02000189	      0.15443660	      0.06297535	      0.09209570	      0.06400640	      0.08712236	      0.35082667	      0.12515511	      0.06549439	      0.12446174	      0.02272183	      0.08012739
      0.29351702	     -6.66379045	    -57.55231042	     57.05845247	    160.82541599	      0.02000183	      0.15449161	      0.06456168	      0.09222729	      0.06529290	      0.08725649	      0.35472702	      0.12493095	      0.06496853	      0.12423879	      0.02263482	      0.08002082
      0.29595060	     -6.80399668	    -57.66950072	     57.45062084	    161.46299652	      0.02000177	      0.15454674	      0.06561326	      0.09236127	      0.06614692	      0.08739281	      0.35779239	      0.12470451	      0.06446210	      0.12401422	      0.02255062	      0.07991302
      0.29908782	     -6.98511855	    -57.79395972	     57.95839637	    162.24622312	      0.02000170	      0.15461796	      0.06646622	      0.09253920	      0.06684036	      0.08757258	      0.36080443	      0.12441087	      0.06383668	      0.12372210	      0.02244605	      0.07977229
      0.30006387	     -7.04154620	    -57.83031994	     58.11687686	    162.49234970	      0.02000168	      0.15464015	      0.06667261	      0.09259541	      0.06700780	      0.08762913	      0.36160918	      0.12431929	      0.06364350	      0.12363059	      0.02241440	      0.07972810
      0.30069438	     -7.07801588	    -57.85332291	     58.21937976	    162.65218288	      0.02000167	      0.15465449	      0.06709973	      0.09263133	      0.06734791	      0.08766535	      0.36272285	      0.12425998	      0.06344524	      0.12357137	      0.02239418	      0.07969945
      0.30132488	     -7.11449969	    -57.87496094	     58.32198282	    162.80958826	      0.02000165	      0.15466884	      0.06753062	      0.09266642	      0.06769086	      0.08770094	      0.36386725	      0.12420036	      0.06323700	      0.12351213	      0.02237413	      0.07967073
      0.30366628	     -7.25008641	    -57.93699372	     58.70383457	    163.35352646	      0.02000160	      0.15472218	      0.06878528	      0.09279591	      0.06868994	      0.08783270	      0.36754915	      0.12397696	      0.06248149	      0.12329185	      0.02230113	      0.07956338
      0.30600767	     -7.38578962	    -57.97675848	     59.08690212	    163.85551743	      0.02000155	      0.15477561	      0.06963404	      0.09292764	      0.06936610	      0.08796622	      0.37048196	      0.12375143	      0.06175315	      0.12307072	      0.02223039	      0.07945497
      0.30839462	     -7.52421402	    -58.00660038	     59.47862041	    164.36284909	      0.02000150	      0.15483017	      0.07021831	      0.09306459	      0.06983161	      0.08810434	      0.37286308	      0.12352028	      0.06103751	      0.12284409	      0.02216053	      0.07934337
      0.30990113	     -7.61161428	    -58.02397408	     59.72648110	    164.69314006	      0.02000147	      0.15486464	      0.07048432	      0.09315206	      0.07004354	      0.08819226	      0.37410872	      0.12337403	      0.06059931	      0.12270033	      0.02211758	      0.07927238
      0.31085484	     -7.66695780	    -58.03435296	     59.88365326	    164.90588820	      0.02000146	      0.15488649	      0.07111611	      0.09320677	      0.07072248	      0.08824704	      0.37588016	      0.12328110	      0.06022055	      0.12260909	      0.02209083	      0.07922721
      0.31209909	     -7.73917255	    -58.04150145	     60.08900416	    165.16985740	      0.02000143	      0.15491501	      0.07191724	      0.09327600	      0.07159192	      0.08831606	      0.37821913	      0.12315877	      0.05970740	      0.12249002	      0.02205644	      0.07916802
      0.31467825	     -7.88885984	    -58.02660024	     60.51563932	    165.64862888	      0.02000138	      0.15497422	      0.07313385	      0.09342012	      0.07291169	      0.08845981	      0.38226247	      0.12290247	      0.05867523	      0.12224274	      0.02198697	      0.07904441
      0.31725742	     -8.03847217	    -57.98699572	     60.94344060	    166.08581506	      0.02000134	      0.15503353	      0.07392880	      0.09356717	      0.07377365	      0.08860654	      0.38542606	      0.12264396	      0.05768402	      0.12199435	      0.02191985	      0.07891957
      0.31916093	     -8.14881822	    -57.95184312	     61.25989721	    166.41331910	      0.02000130	      0.15507737	      0.07433333	      0.09367735	      0.07421216	      0.08871648	      0.38731377	      0.12245242	      0.05697769	      0.12181009	      0.02187178	      0.07882667
